<svg width="20" height="6" viewBox="0 0 20 6" fill="none" xmlns="http://www.w3.org/2000/svg">
<path d="M5.19941 2.99985C5.19941 3.63637 4.94656 4.24682 4.49647 4.69691C4.04638 5.147 3.43593 5.39985 2.79941 5.39985C2.16289 5.39985 1.55245 5.147 1.10236 4.69691C0.65227 4.24682 0.399414 3.63637 0.399414 2.99985C0.399414 2.36333 0.65227 1.75288 1.10236 1.3028C1.55245 0.85271 2.16289 0.599854 2.79941 0.599854C3.43593 0.599854 4.04638 0.85271 4.49647 1.3028C4.94656 1.75288 5.19941 2.36333 5.19941 2.99985ZM12.3994 2.99985C12.3994 3.63637 12.1466 4.24682 11.6965 4.69691C11.2464 5.147 10.6359 5.39985 9.99941 5.39985C9.3629 5.39985 8.75245 5.147 8.30236 4.69691C7.85227 4.24682 7.59941 3.63637 7.59941 2.99985C7.59941 2.36333 7.85227 1.75288 8.30236 1.3028C8.75245 0.85271 9.3629 0.599854 9.99941 0.599854C10.6359 0.599854 11.2464 0.85271 11.6965 1.3028C12.1466 1.75288 12.3994 2.36333 12.3994 2.99985ZM17.1994 5.39985C17.8359 5.39985 18.4464 5.147 18.8965 4.69691C19.3466 4.24682 19.5994 3.63637 19.5994 2.99985C19.5994 2.36333 19.3466 1.75288 18.8965 1.3028C18.4464 0.85271 17.8359 0.599854 17.1994 0.599854C16.5629 0.599854 15.9524 0.85271 15.5024 1.3028C15.0523 1.75288 14.7994 2.36333 14.7994 2.99985C14.7994 3.63637 15.0523 4.24682 15.5024 4.69691C15.9524 5.147 16.5629 5.39985 17.1994 5.39985Z" fill="#9796A8"/>
</svg>
